<?xml version="1.0" encoding="utf-8"?>
<!-- Generator: Adobe Illustrator 17.0.0, SVG Export Plug-In . SVG Version: 6.00 Build 0)  -->
<!DOCTYPE svg PUBLIC "-//W3C//DTD SVG 1.1//EN" "http://www.w3.org/Graphics/SVG/1.1/DTD/svg11.dtd">
<svg version="1.1" id="Layer_1" xmlns="http://www.w3.org/2000/svg" xmlns:xlink="http://www.w3.org/1999/xlink" x="0px" y="0px"
	 width="500px" height="149.5px" viewBox="0 350.5 500 149.5" enable-background="new 0 350.5 500 149.5" xml:space="preserve">
<line fill="none" x1="261.824" y1="425.25" x2="261.738" y2="425.25"/>
<line fill="none" x1="261.788" y1="425.25" x2="261.774" y2="425.25"/>
<g>
	<path fill="#2B2C28" d="M87.099,357.651c37.334,0,67.599,30.265,67.599,67.599c0,37.334-30.265,67.598-67.599,67.598
		S19.5,462.584,19.5,425.25C19.5,387.916,49.765,357.651,87.099,357.651"/>
	<path fill="red" d="M136.169,417.358c-1.373-5.147-5.834-9.951-15.785-14.069c-18.186-7.892-26.765-15.785-29.853-18.53v-0.686
		c0-1.716-1.716-3.775-3.775-3.775c-1.716,0-3.775,1.716-3.775,3.775v0.686c-2.746,2.745-11.667,10.637-29.854,18.53
		c-9.608,4.804-14.069,9.608-15.441,14.069c-0.686,3.431,0,6.176,2.059,9.608c5.834,7.893,23.677,17.158,45.981,17.158h1.029h1.029
		c22.304,0,40.491-8.578,45.981-16.814C136.169,423.878,136.855,420.789,136.169,417.358 M129.306,423.535
		c-4.117,5.834-19.559,14.069-41.177,14.069H87.1h-1.029c-21.618,0-37.059-8.235-41.177-14.069
		c-1.372-1.716-1.716-3.431-1.372-5.147c0.686-3.431,5.147-6.52,12.353-10.637c17.157-7.206,26.079-14.412,30.539-18.873h1.03
		c4.461,4.461,13.726,11.324,30.539,18.53c7.206,4.117,11.667,7.206,12.353,10.637C131.021,420.446,130.679,422.162,129.306,423.535
		"/>
	<path fill="#01EF78" d="M136.169,417.358c-1.373-5.147-5.834-9.951-15.785-14.069c-18.186-7.892-26.765-15.785-29.853-18.53v-0.686
		c0-1.716-1.716-3.775-3.775-3.775c-1.716,0-3.775,1.716-3.775,3.775v0.686c-2.746,2.745-11.667,10.637-29.854,18.53
		c-9.608,4.804-14.069,9.608-15.441,14.069c-0.686,3.431,0,6.176,2.059,9.608c5.834,7.893,23.677,17.158,45.981,17.158h1.029h1.029
		c22.304,0,40.491-8.578,45.981-16.814C136.169,423.878,136.855,420.789,136.169,417.358 M129.306,423.535
		c-4.117,5.834-19.559,14.069-41.177,14.069H87.1h-1.029c-21.618,0-37.059-8.235-41.177-14.069
		c-1.372-1.716-1.716-3.431-1.372-5.147c0.686-3.431,5.147-6.52,12.353-10.637c17.157-7.206,26.079-14.412,30.539-18.873h1.03
		c4.461,4.461,13.726,11.324,30.539,18.53c7.206,4.117,11.667,7.206,12.353,10.637C131.021,420.446,130.679,422.162,129.306,423.535
		"/>
	<path fill="#01EF78" d="M136.169,443.78c-1.373-5.147-5.834-9.951-15.785-14.069c-18.186-7.892-26.765-15.784-29.853-18.53v-0.686
		c0-1.716-1.716-3.774-3.775-3.774c-1.716,0-3.775,1.716-3.775,3.774v0.686c-2.746,2.746-11.667,10.637-29.854,18.53
		c-9.608,4.805-14.069,9.609-15.441,14.069c-0.686,3.431,0,6.177,2.059,9.608c5.834,7.892,23.677,17.157,45.981,17.157h1.029h1.029
		c22.304,0,40.491-8.578,45.981-16.814C136.169,450.3,136.855,446.525,136.169,443.78 M129.306,450.3
		c-4.117,5.834-19.559,14.069-41.177,14.069H87.1h-1.029c-21.618,0-37.059-8.235-41.177-14.069
		c-1.372-1.716-1.716-3.431-1.372-5.147c0.686-3.431,5.147-6.52,12.353-10.637c17.157-7.206,26.079-14.412,30.539-18.873h1.03
		c4.461,4.461,13.726,11.324,30.539,18.53c7.206,4.117,11.667,7.206,12.353,10.637C131.021,446.525,130.679,447.898,129.306,450.3"
		/>
</g>
<g>
	<circle fill="#2B2C28" cx="474.775" cy="397.263" r="4.786"/>
	<g>
		<path fill="#2B2C28" d="M177.741,457.335v-65.064h22.299c7.358,0,12.959,1.475,16.802,4.424s5.765,7.344,5.765,13.183
			c0,2.979-0.804,5.66-2.413,8.044s-3.963,4.23-7.061,5.541c3.515,0.954,6.234,2.748,8.155,5.385
			c1.922,2.637,2.882,5.802,2.882,9.496c0,6.107-1.959,10.799-5.876,14.076c-3.918,3.278-9.526,4.916-16.825,4.916h-23.728V457.335z
			 M189.047,419.664h11.082c3.515,0,6.263-0.797,8.245-2.391c1.981-1.593,2.972-3.85,2.972-6.77c0-3.217-0.916-5.541-2.748-6.971
			c-1.832-1.43-4.685-2.145-8.558-2.145h-10.993V419.664z M189.047,427.976v20.333h12.557c3.545,0,6.315-0.878,8.312-2.637
			c1.995-1.758,2.994-4.201,2.994-7.329c0-6.763-3.456-10.218-10.367-10.367H189.047z"/>
		<path fill="#2B2C28" d="M255.72,458.229c-6.882,0-12.461-2.167-16.735-6.502c-4.275-4.335-6.413-10.106-6.413-17.316v-1.341
			c0-4.826,0.931-9.138,2.793-12.937c1.861-3.798,4.476-6.755,7.843-8.87c3.366-2.116,7.12-3.173,11.261-3.173
			c6.584,0,11.67,2.1,15.261,6.301c3.59,4.201,5.385,10.144,5.385,17.83v4.379H243.52c0.327,3.993,1.66,7.15,3.999,9.474
			c2.338,2.324,5.28,3.486,8.826,3.486c4.975,0,9.027-2.011,12.155-6.033l5.854,5.586c-1.937,2.889-4.521,5.132-7.753,6.725
			C263.368,457.431,259.741,458.229,255.72,458.229z M254.424,416.804c-2.979,0-5.385,1.043-7.217,3.128s-3.002,4.989-3.508,8.714
			h20.69v-0.804c-0.239-3.635-1.207-6.383-2.905-8.245C259.786,417.736,257.432,416.804,254.424,416.804z"/>
		<path fill="#2B2C28" d="M293.614,408.984l0.313,5.586c3.575-4.319,8.267-6.48,14.076-6.48c10.069,0,15.194,5.765,15.372,17.294
			v31.951h-10.859v-31.326c0-3.068-0.663-5.34-1.989-6.815c-1.326-1.475-3.493-2.212-6.502-2.212c-4.379,0-7.641,1.982-9.786,5.943
			v34.409H283.38v-48.351h10.234V408.984z"/>
		<path fill="#2B2C28" d="M363.903,392.386v21.07c-3.15-3.58-7.3-5.37-12.42-5.37c-5.81,0-10.44,2.26-13.9,6.77
			c-3.45,4.52-5.18,10.5-5.18,17.95c0,7.83,1.75,14.03,5.25,18.59c3.5,4.55,8.08,6.83,13.74,6.83c5.42,0,9.76-1.96,13-5.9l0.54,5.01
			h9.83v-64.95H363.903z M363.903,443.436c-2.05,3.96-5.3,5.94-9.74,5.94c-3.48,0-6.17-1.37-8.06-4.13
			c-1.9-2.75-2.84-6.59-2.84-11.51c0-5.6,0.95-9.79,2.86-12.57c1.9-2.79,4.62-4.18,8.13-4.18c4.44,0,7.66,1.93,9.65,5.81V443.436z"
			/>
		<path fill="#2B2C28" d="M414.984,457.335c-0.477-0.923-0.894-2.429-1.251-4.513c-3.456,3.604-7.686,5.407-12.691,5.407
			c-4.856,0-8.819-1.385-11.887-4.156c-3.069-2.771-4.603-6.196-4.603-10.278c0-5.154,1.914-9.109,5.742-11.864
			s9.302-4.134,16.422-4.134h6.658v-3.173c0-2.502-0.7-4.507-2.1-6.01c-1.401-1.504-3.53-2.257-6.39-2.257
			c-2.473,0-4.499,0.619-6.077,1.854c-1.58,1.236-2.368,2.808-2.368,4.714H385.58c0-2.652,0.878-5.132,2.637-7.44
			c1.757-2.308,4.148-4.118,7.172-5.429c3.023-1.311,6.397-1.966,10.122-1.966c5.66,0,10.173,1.423,13.54,4.268
			c3.366,2.844,5.094,6.844,5.184,11.998v21.807c0,4.35,0.61,7.82,1.832,10.412v0.76L414.984,457.335L414.984,457.335z
			 M403.052,449.515c2.145,0,4.163-0.521,6.055-1.564c1.891-1.043,3.314-2.442,4.268-4.201v-9.116h-5.854
			c-4.022,0-7.046,0.7-9.071,2.1c-2.026,1.401-3.039,3.381-3.039,5.943c0,2.085,0.693,3.747,2.078,4.983
			S400.729,449.515,403.052,449.515z"/>
		<path fill="#2B2C28" d="M460.922,418.904c-1.43-0.239-2.905-0.357-4.424-0.357c-4.976,0-8.327,1.906-10.055,5.72v33.068h-10.859
			v-48.351h10.367l0.268,5.407c2.621-4.201,6.256-6.301,10.904-6.301c1.549,0,2.83,0.208,3.843,0.626L460.922,418.904z"/>
		<path fill="#2B2C28" d="M479.333,457.335h-9.296v-48.351h9.296V457.335z"/>
	</g>
</g>
</svg>
